**ABCDEFGHIJKLMNOPQRSTUVWXYZabcdefghijklmnopqrstuvwxyz**************************
**PARASOLID !"#$%&'()*+,-./:;<=>?@[\]^_`{|}~0123456789**************************
**PART1;
MC=unknown;
MC_MODEL=unknown;
MC_ID=unknown;
OS=unknown;
OS_RELEASE=unknown;
FRU=sdl_parasolid_customer_support;
APPL=parasolid_acceptance_tests;
SITE=unknown;
USER=unknown;
FORMAT=text;
GUISE=transmit;
KEY=C:\Users\erwan\.numeca\tmp\tmp_parasolid_0;
FILE=C:\Users\erwan\.numeca\tmp\tmp_parasolid_0.X_T;
DATE=unknown;
**PART2;
SCH=SCH_2701165_26105;
USFLD_SIZE=0;
**PART3;
**END_OF_HEADER*****************************************************************
T51 : TRANSMIT FILE created by modeller version 270116523 SCH_2701165_26105_1300
6200 0 12 30 CCCCCCCCCCCCCDI5 owner1040 0 CCCCCCCCCA13 boundary_mesh1006 0 A16 i
ndex_map_offset0 0 1 dA9 index_map82 0 A17 node_id_index_map82 0 A20 schema_embe
dding_map82 0 A5 child12 0 A14 lowest_node_id0 0 1 dZ1 70 2 3 0 0 0 0 1e3 1e-8 0
 4 0 1 0 1 1 5 6 7 8 9 10 11 0 0 0 0 0 0 0 81 255 1 2 70 12 1 13 0 0 0 0 70 11 C
I9 list_type0 0 1 uI10 notransmit0 0 1 lCCCDCCDI12 finger_index0 0 1 dI12 finger
_block1012 0 CZ3 0 4 T1 0 0 2 20 1 14 14 13 255 5 3 0 1 0 15 0 0 16 0 50 255 6 5
4 0 15 17 0 0 +44 5 10 0 0 1 1 0 0 30 255 7 62 0 10 18 0 0 +44 0 10 -1 0 0 29 25
5 8 58 0 11 19 0 28 0 10 19 8 CCCCCCCA5 owner12 0 Z9 1 0 1 16 0 20 V0 16 255 10
 34 0 ?21 0 22 7 0 0 1 18 255 11 23 0 21 0 23 8 ?1 17 255 21 0 24 25 26 11 27 10
 0 28 +18 23 21 0 29 11 30 19 ?1 17 29 0 31 32 33 23 28 22 0 34 +18 30 19 0 35 2
3 36 37 ?1 29 19 57 0 23 37 8 28 10 10 29 37 56 0 30 38 19 60 10 10 29 38 55 0 3
6 39 37 60 0 10 18 36 17 0 27 30 40 38 ?1 29 39 41 0 41 42 38 28 0 .5 18 41 11 0
 25 43 44 39 ?1 29 42 40 0 43 45 39 28 10 .5 18 43 13 0 32 40 41 42 ?1 29 45 39
 0 40 46 42 60 10 .5 18 40 15 0 47 36 43 45 ?1 29 46 38 0 44 0 45 60 0 .5 18 44
 10 0 48 41 0 46 ?1 17 48 0 49 50 51 44 26 52 0 53 -15 255 49 7 0 50 54 0 17 50
 0 49 55 48 40 56 57 0 0 +17 51 0 49 48 55 36 58 59 0 26 +17 26 0 24 21 53 36 48
 52 0 0 +16 52 18 0 ?26 60 57 61 0 0 1 17 53 0 24 26 25 44 62 63 0 56 +15 24 32
 0 26 64 0 17 25 0 24 53 21 41 33 65 0 66 -17 62 0 67 68 56 41 53 63 0 0 -16 63
 12 0 ?53 69 0 70 0 0 1 17 56 0 67 62 71 44 50 57 0 0 -15 67 8 0 56 72 0 17 71 0
 67 56 68 40 73 74 0 50 -16 57 6 0 ?50 52 74 75 0 0 1 16 74 16 0 ?73 57 69 76 0
 0 1 30 75 43 0 57 70 76 0 +60 5 .5 0 1 0 30 70 42 0 63 0 75 0 +44 0 .5 1 0 0 30
 76 44 0 74 75 77 0 +44 10 .5 -1 0 0 30 77 45 0 69 76 61 0 +28 5 .5 0 -1 0 16 69
 14 0 ?66 74 63 77 0 0 1 30 61 50 0 52 77 78 0 +60 0 .5 0 0 1 30 78 51 0 60 61 7
9 0 +60 10 .5 0 0 1 16 60 20 0 ?55 80 52 78 0 0 1 30 79 52 0 80 78 81 0 +28 10 .
5 0 0 1 16 80 22 0 ?82 65 60 79 0 0 1 30 81 53 0 65 79 83 0 +28 0 .5 0 0 1 16 65
 24 0 ?33 59 80 81 0 0 1 30 83 59 0 59 81 84 0 +60 5 10 0 -1 0 16 59 25 0 ?51 85
 65 83 0 0 1 30 84 60 0 85 83 18 0 +44 10 10 1 0 0 16 85 28 0 ?35 22 59 84 0 0 1
 30 18 61 0 22 84 7 0 +28 5 10 0 1 0 16 22 31 0 ?29 10 85 18 0 0 1 17 35 0 86 47
 82 30 34 85 0 58 +15 86 26 0 82 87 0 17 47 0 86 73 35 40 55 60 0 71 -17 82 0 86
 35 73 23 32 80 0 0 +17 34 0 88 28 58 23 35 85 0 82 -17 58 0 88 34 27 30 51 59 0
 55 -15 88 35 0 27 15 0 17 27 0 88 58 28 36 21 10 0 51 -17 55 0 49 51 50 30 47 6
0 0 0 +17 28 0 88 27 34 11 29 22 0 33 -17 33 0 31 29 66 11 25 65 0 0 +15 31 29 0
 33 89 0 17 66 0 31 33 32 41 68 69 0 62 +17 32 0 31 66 29 43 82 80 0 73 -17 68 0
 67 71 62 43 66 69 0 0 -17 73 0 86 82 47 43 71 74 0 68 +14 255 89 30 90 ?87 64 3
1 5 91 +0 0 87 64 20 81 1 90 66 92 89 0 0 93 94 95 14 87 27 94 ?72 89 86 5 96 +0
 0 72 89 20 14 64 33 93 ?89 15 24 5 17 +0 0 89 15 20 50 91 48 0 89 96 17 0 +28 5
 .5 -1 0 0 0 0 1 13 20 4 0 0 0 0 0 0 9 15 14 15 36 97 ?64 0 88 5 6 +0 0 64 0 20
 81 1 97 64 92 15 0 0 13 93 98 80 255 1 92 99 100 8017 0 0 0 0 0 0 0 0 0 TTTTTTT
TTTTTTF3 81 1 13 63 92 1 0 2 0 97 101 81 1 93 65 92 64 0 0 97 90 102 84 255 9 98
 B6_face_084 9 102 B6_face_184 2 101 B679 255 13 100 SDL/TYSA_NAME50 96 47 0 87
 103 91 0 +44 10 .5 0 1 0 0 0 1 50 17 49 0 64 91 6 0 +44 0 .5 0 -1 0 0 0 -1 50 1
03 46 0 54 104 96 0 +60 5 .5 1 0 0 0 0 -1 14 54 2 105 ?0 72 49 5 103 +0 0 0 72 2
0 50 104 37 0 72 0 103 0 +44 5 .5 0 0 -1 -1 0 0 14 72 9 106 ?54 87 67 5 104 +0 0
 54 87 20 81 1 106 68 92 72 0 0 94 105 107 81 1 94 67 92 87 0 0 90 106 108 81 1
 105 69 92 54 0 0 106 0 109 84 9 107 B6_face_484 9 109 B6_face_584 9 108 B6_face
_384 9 95 B6_face_219 16 5 0 1 0 9 5 S0 74 4 CI16 index_map_offset0 0 1 dCCZ20 1
4 2 0 0 105 2 0 0 0 0 0 0 0 0 0 0 0 0 0 0 0 0 0 0 80 1 12 110 111 9000 0 0 0 0 3
 5 0 0 0 FFTFFFFFFFFFFF9 79 8 111 BodyView1 0 
